# xmcd
#
# Track frame offsets: 
#        150
#        17787
#        33806
#        53028
#        74753
#        98762
#        130194
#        150306
#        174701
#        199140
#        217161
#        230252
#        255016
#        281461
#        299576
#        329291
#
# Disc length: 4781 seconds
#
# Revision: 1
# Processed by: cddbd v1.5.2PL0 Copyright (c) Steve Scherf et al.
# Submitted via: ExactAudioCopy v1.1
#
DISCID=e312ab10
DTITLE=Various Artist - Trail Of The Wolf - vol.02 - Various Of The B
DTITLE=lues  CD1
DYEAR=2017
DGENRE=Blues
TTITLE0=Jim Suhler and Monkey Beat - Deja Blue
TTITLE1=David Gogo - Please Find My Baby
TTITLE2=Eric Burdon - Soul Of A Man
TTITLE3=Ronnie Earl - Catfish Blues
TTITLE4=Timo Gross - Driftin' Blues
TTITLE5=Paul Camilleri - Poor Heart
TTITLE6=Robert Finley - Age Don't Mean a Thing
TTITLE7=Joe Beard and Ronnie Earl - Just To Be With You
TTITLE8=Curtis Salgado - Let's Get Married
TTITLE9=Gregg Rolie - Domingo
TTITLE10=Albert Lee and Hogan's Heroes - Skip Rope Song
TTITLE11=Tab Benoit - A Whole Lotta Soul
TTITLE12=Innes Sibun - So tired of living
TTITLE13=Black Cat Bone - Meet Me In St. Louis
TTITLE14=Blues Cousins - The Brother
TTITLE15=Duke Robillard - Duke's Mood
EXTD=
EXTT0=
EXTT1=
EXTT2=
EXTT3=
EXTT4=
EXTT5=
EXTT6=
EXTT7=
EXTT8=
EXTT9=
EXTT10=
EXTT11=
EXTT12=
EXTT13=
EXTT14=
EXTT15=
PLAYORDER=
